<svg width="694" height="429" viewBox="0 0 694 429" fill="none" xmlns="http://www.w3.org/2000/svg">
<path opacity="0.1" d="M337.281 96.8208C365.893 92.7574 392.971 81.5556 416.321 64.643C451.291 39.2742 524.301 -3.88582 594.022 17.6393C690.273 47.1814 690.711 132.952 665.607 179.517C640.613 226.081 462.911 362.48 232.59 340.845C26.4952 321.407 -13.6275 99.1271 96.2165 58.8225C191.7 24.0089 224.149 112.855 337.281 96.8208Z" fill="#3A36DB"/>
<path d="M661.333 224.435C657.034 224.435 653.549 220.944 653.549 216.637C653.549 212.331 657.034 208.84 661.333 208.84C665.631 208.84 669.116 212.331 669.116 216.637C669.116 220.944 665.631 224.435 661.333 224.435Z" fill="#FFCDB3"/>
<path opacity="0.2" d="M339.047 428.608C214.205 428.608 113 424.97 113 420.481C113 415.993 214.205 412.354 339.047 412.354C463.888 412.354 565.093 415.993 565.093 420.481C565.093 424.97 463.888 428.608 339.047 428.608Z" fill="#605BFF"/>
<path d="M388.039 105.277L387.71 107.035L387.272 108.901L386.395 112.745C385.847 115.381 385.189 117.907 384.531 120.543C383.873 123.178 383.216 125.704 382.448 128.23C381.79 130.756 381.023 133.282 380.256 135.808C379.488 138.334 378.611 140.75 377.734 143.166C376.857 145.582 375.98 147.998 374.994 150.195C374.007 152.501 373.02 154.697 371.924 156.894C370.828 158.98 369.732 161.067 368.526 162.824C367.32 164.691 366.114 166.338 365.018 167.656C363.812 168.974 362.716 170.072 361.729 170.621C361.291 170.951 360.852 171.171 360.523 171.28C360.194 171.39 359.975 171.5 359.646 171.61H359.537L359.098 171.72L358.111 171.939L356.138 172.269L352.082 172.928L348.026 173.587L343.97 174.246C341.229 174.685 338.598 175.124 335.858 175.454L331.802 176.112C330.486 176.332 329.061 176.552 327.745 176.771L325.663 177.101L323.58 177.43C322.922 177.54 322.264 177.65 321.497 177.76C320.839 177.87 320.072 177.979 319.524 178.089L318.975 178.199C312.617 179.407 308.342 185.557 309.548 192.037C310.534 197.308 314.919 201.152 320.072 201.591L322.264 201.811C323.032 201.921 323.689 201.921 324.457 202.03C325.882 202.14 327.417 202.25 328.842 202.36L331.034 202.47L333.227 202.58C334.652 202.58 336.077 202.689 337.612 202.689C339.037 202.689 340.572 202.689 341.997 202.689C343.422 202.689 344.957 202.689 346.382 202.689C349.342 202.689 352.192 202.58 355.152 202.47C356.577 202.36 358.111 202.36 359.537 202.25L361.729 202.14L362.825 202.03H363.373L364.36 201.921C366.881 201.591 369.403 200.932 371.705 200.054C374.007 199.175 376.09 198.077 378.063 196.979C380.036 195.771 381.79 194.563 383.325 193.135C384.97 191.817 386.395 190.389 387.71 189.071C389.026 187.644 390.232 186.216 391.437 184.788C392.534 183.361 393.63 181.933 394.617 180.505C396.59 177.65 398.344 174.795 399.879 171.829C401.413 168.974 402.838 166.009 404.044 163.154C405.36 160.298 406.456 157.333 407.552 154.478C408.649 151.622 409.635 148.657 410.622 145.802C411.499 142.946 412.376 139.981 413.253 137.126C414.02 134.27 414.787 131.305 415.445 128.45C416.103 125.594 416.761 122.629 417.418 119.664C417.747 118.236 417.967 116.699 418.295 115.271L418.734 113.075L418.953 111.977L419.172 110.659C420.488 102.093 414.568 94.0755 406.017 92.7577C397.686 91.4398 389.903 97.0407 388.258 105.168L388.039 105.277Z" fill="#FFAA8C"/>
<path d="M421.584 114.502C419.501 121.641 411.06 145.911 403.605 157.992L370.827 142.507C370.827 142.507 382.009 116.589 387.819 100.225C389.683 94.9539 393.849 90.6709 399.22 88.8039C402.838 87.5959 407.113 87.2664 411.937 89.5727C421.364 94.0754 422.351 104.508 422.241 109.67C422.351 111.427 422.022 112.965 421.584 114.502Z" fill="#FF69B4"/>
<path d="M297.268 369.179L288.607 383.237L272.164 375.988L279.618 360.833L297.268 369.179Z" fill="#FFAA8C"/>
<path d="M220.042 383.54L282.199 411.105C283.076 410.446 283.843 409.348 284.501 408.03C287.242 402.978 289.215 393.753 290.75 388.043C290.969 387.384 291.078 386.725 291.298 386.176C291.627 385.187 291.846 384.418 292.065 383.979C293.929 379.696 289.872 378.708 289.872 378.708C280.883 382.112 277.814 369.702 272.333 370.91C272.333 370.91 269.921 371.35 263.014 373.656C256.108 375.962 246.351 375.084 237.91 374.974C226.948 374.754 222.673 377.5 220.919 379.916C219.713 381.783 220.042 383.54 220.042 383.54Z" fill="#FF69B4"/>
<path d="M220.092 384.005L282.25 411.571C283.127 410.912 283.894 409.814 284.552 408.496L220.969 380.271C219.764 382.248 220.092 384.005 220.092 384.005Z" fill="#3A36DB"/>
<path d="M276.002 408.825L277.865 409.594C276.988 406.629 276.659 402.675 278.962 398.172C282.031 392.132 287.512 389.606 291.02 388.618C291.239 387.959 291.349 387.3 291.568 386.751C287.841 387.63 281.154 390.155 277.536 397.404C275.234 401.797 275.234 405.64 276.002 408.825Z" fill="#3A36DB"/>
<path d="M262.518 378.295C262.956 378.515 263.504 378.405 263.833 377.966C264.162 377.527 264.162 376.758 263.614 376.428L260.106 373.683C259.667 373.353 258.9 373.353 258.571 373.903C258.242 374.342 258.242 375.111 258.79 375.44L262.298 378.186C262.408 378.186 262.518 378.186 262.518 378.295Z" fill="#3A36DB"/>
<path d="M267.89 376.757C268.328 376.977 268.876 376.867 269.205 376.428C269.534 375.989 269.534 375.22 268.986 374.89L265.478 372.145C265.04 371.815 264.272 371.815 263.943 372.364C263.614 372.804 263.614 373.572 264.163 373.902L267.671 376.647C267.671 376.647 267.78 376.647 267.89 376.757Z" fill="#3A36DB"/>
<path d="M257.693 378.844C258.132 379.064 258.68 378.954 259.009 378.515C259.338 378.075 259.338 377.307 258.79 376.977L255.282 374.232C254.843 373.902 254.076 373.902 253.747 374.451C253.418 374.891 253.418 375.659 253.966 375.989L257.474 378.734C257.474 378.734 257.584 378.734 257.693 378.844Z" fill="#3A36DB"/>
<path d="M252.87 379.284C253.309 379.503 253.857 379.393 254.186 378.954C254.515 378.515 254.515 377.746 253.966 377.417L250.458 374.671C250.02 374.342 249.253 374.342 248.924 374.891C248.595 375.33 248.595 376.099 249.143 376.428L252.651 379.174C252.651 379.174 252.761 379.174 252.87 379.284Z" fill="#3A36DB"/>
<path d="M247.718 379.393C248.156 379.613 248.705 379.503 249.033 379.064C249.362 378.624 249.362 377.856 248.814 377.526L245.306 374.781C244.868 374.451 244.1 374.451 243.771 375C243.442 375.439 243.443 376.208 243.991 376.538L247.499 379.283C247.499 379.283 247.608 379.393 247.718 379.393Z" fill="#3A36DB"/>
<path d="M242.346 379.063C242.784 379.283 243.332 379.173 243.661 378.733C243.99 378.294 243.99 377.525 243.442 377.196L239.934 374.45C239.496 374.121 238.728 374.121 238.399 374.67C238.07 375.109 238.07 375.878 238.619 376.208L242.127 378.953C242.127 378.953 242.236 379.063 242.346 379.063Z" fill="#3A36DB"/>
<path d="M335.857 232.781C341.667 227.07 387.161 214.331 417.418 222.787C420.926 229.486 425.311 246.399 414.458 262.103C374.664 268.583 352.52 281.981 352.52 281.981C352.52 281.981 338.378 314.598 330.047 326.569C321.715 338.54 302.421 376.648 302.421 376.648L273.48 364.238C273.59 364.238 320.18 248.266 335.857 232.781Z" fill="#06152B"/>
<path d="M305.6 369.509C305.49 369.509 305.38 369.509 305.271 369.399L276.988 357.648C276.549 357.428 276.33 356.989 276.549 356.55C276.768 356.111 277.207 355.891 277.645 356.111L305.929 367.862C306.367 368.081 306.586 368.52 306.367 368.96C306.257 369.289 305.929 369.509 305.6 369.509Z" fill="#F1F4FA"/>
<path d="M300.886 367.093C300.776 367.093 300.666 367.093 300.557 366.983C300.118 366.763 299.899 366.324 300.118 365.885C300.228 365.775 306.148 350.949 319.96 329.863C333.663 308.997 348.024 273.634 348.244 273.305C348.463 272.865 348.901 272.646 349.34 272.865C349.778 273.085 349.997 273.524 349.778 273.964C349.669 274.293 335.198 309.766 321.385 330.742C307.682 351.608 301.763 366.324 301.763 366.434C301.434 366.873 301.214 367.093 300.886 367.093Z" fill="#F1F4FA"/>
<path d="M370.389 371.596L368.196 388.069H350.108L350.875 371.156L370.389 371.596Z" fill="#FFAA8C"/>
<path d="M305.659 416.047H373.736C374.284 415.168 374.503 413.85 374.613 412.313C375.051 406.492 373.188 397.377 372.311 391.556C372.201 390.897 372.091 390.239 371.982 389.689C371.872 388.701 371.763 387.932 371.763 387.273C371.763 382.551 367.597 383.32 367.597 383.32C360.691 390.129 352.907 379.915 348.303 383.32C348.303 383.32 346.33 384.747 340.958 389.58C335.586 394.412 326.378 397.706 318.595 400.891C308.509 405.174 305.659 409.348 305.111 412.203C304.672 414.619 305.659 416.047 305.659 416.047Z" fill="#FF69B4"/>
<path d="M305.71 416.512H373.787C374.335 415.634 374.554 414.316 374.664 412.778H305.162C304.723 415.085 305.71 416.512 305.71 416.512Z" fill="#3A36DB"/>
<path d="M366.88 416.513H368.853C366.88 414.206 364.907 410.692 365.236 405.64C365.565 398.941 369.621 394.329 372.361 392.022C372.252 391.363 372.142 390.704 372.032 390.155C368.963 392.462 363.92 397.513 363.482 405.64C363.372 410.363 365.016 413.987 366.88 416.513Z" fill="#3A36DB"/>
<path d="M342.324 393.998C342.872 393.998 343.311 393.669 343.42 393.12C343.53 392.571 343.201 391.912 342.653 391.802L338.378 390.704C337.83 390.594 337.172 390.923 337.062 391.472C336.953 392.022 337.281 392.68 337.83 392.79L342.105 393.888C342.105 393.998 342.215 393.998 342.324 393.998Z" fill="#3A36DB"/>
<path d="M346.49 390.484C347.038 390.484 347.477 390.154 347.586 389.605C347.696 389.056 347.367 388.397 346.819 388.287L342.544 387.189C341.996 387.079 341.338 387.409 341.228 387.958C341.119 388.507 341.447 389.166 341.996 389.276L346.271 390.374C346.381 390.484 346.381 390.484 346.49 390.484Z" fill="#3A36DB"/>
<path d="M338.051 396.524C338.599 396.524 339.037 396.194 339.147 395.645C339.257 395.096 338.928 394.437 338.38 394.327L334.104 393.229C333.556 393.119 332.898 393.449 332.789 393.998C332.679 394.547 333.008 395.206 333.556 395.316L337.831 396.414C337.831 396.524 337.941 396.524 338.051 396.524Z" fill="#3A36DB"/>
<path d="M333.773 398.941C334.321 398.941 334.76 398.611 334.87 398.062C334.979 397.513 334.65 396.854 334.102 396.744L329.827 395.646C329.279 395.536 328.621 395.866 328.511 396.415C328.402 396.964 328.731 397.623 329.279 397.733L333.554 398.831C333.554 398.831 333.664 398.941 333.773 398.941Z" fill="#3A36DB"/>
<path d="M329.169 401.137C329.717 401.137 330.156 400.808 330.265 400.258C330.375 399.709 330.046 399.05 329.498 398.941L325.222 397.842C324.674 397.733 324.016 398.062 323.907 398.611C323.797 399.16 324.126 399.819 324.674 399.929L328.95 401.027C328.95 401.137 329.059 401.137 329.169 401.137Z" fill="#3A36DB"/>
<path d="M324.127 403.004C324.675 403.004 325.114 402.675 325.223 402.126C325.333 401.576 325.004 400.918 324.456 400.808L320.18 399.71C319.632 399.6 318.975 399.929 318.865 400.478C318.755 401.027 319.084 401.686 319.632 401.796L323.908 402.894C323.908 403.004 324.017 403.004 324.127 403.004Z" fill="#3A36DB"/>
<path d="M389.245 99.0173C389.135 105.716 396.48 117.907 401.194 144.154C401.303 144.813 401.413 145.472 401.523 146.131C401.742 147.559 401.961 149.096 402.29 150.634C402.4 151.292 402.509 151.842 402.509 152.501C402.728 154.038 402.948 155.576 403.167 157.223C403.277 157.772 403.277 158.321 403.386 158.87C403.605 160.957 403.825 163.043 404.044 165.24C404.263 167.217 404.373 169.084 404.482 171.17C404.592 172.159 404.592 173.257 404.702 174.245C404.702 175.343 404.811 176.442 404.811 177.54C405.359 189.291 406.017 216.856 405.031 232.231C426.188 245.629 470.257 246.398 499.966 224.214C501.72 213.671 498.979 177.869 498.102 167.217C497.883 165.13 497.663 162.934 497.444 160.847C496.238 150.634 494.155 140.53 491.634 130.097C491.524 129.548 491.305 128.999 491.196 128.34C489.113 119.664 486.811 110.768 484.289 101.324C479.466 82.544 470.915 72.0011 459.624 72.4404C454.362 72.5502 450.086 71.8913 446.798 71.1225C446.359 71.0127 446.03 70.9029 445.701 70.793C441.755 69.6948 439.453 68.377 439.453 68.377L414.897 73.0993C413.362 76.6136 411.06 79.0297 408.429 80.8967C408.1 81.1163 407.881 81.3359 407.552 81.5556C399.659 86.9369 389.354 88.0351 389.245 99.0173Z" fill="#FF69B4"/>
<path d="M402.29 150.634C402.399 151.293 402.509 151.842 402.509 152.501C402.728 154.038 402.947 155.576 403.167 157.223C403.276 157.772 403.276 158.321 403.386 158.871C403.605 160.957 403.824 163.044 404.044 165.24C404.263 167.217 404.373 169.084 404.482 171.171C404.592 172.159 404.592 173.257 404.701 174.246L411.389 182.702L419.172 161.506L405.03 143.166L402.29 150.634Z" fill="#FF69B4"/>
<path d="M440.878 158.211L432.875 179.297L419.063 161.506L426.956 139.651L440.878 158.211Z" fill="#FF69B4"/>
<path d="M462.803 155.137L454.581 176.222L440.878 158.212L448.99 136.467L462.803 155.137Z" fill="#AD2F24"/>
<path d="M484.617 152.39L476.176 173.256L462.692 155.136L471.024 133.501L484.617 152.39Z" fill="#FF69B4"/>
<path d="M489.881 217.076C490.21 217.076 490.429 216.856 490.429 216.527C492.841 157.882 481.769 114.612 481.659 114.173C481.549 113.843 481.33 113.733 481.001 113.733C480.672 113.843 480.563 114.063 480.563 114.392C480.672 114.832 491.744 157.882 489.333 216.417C489.333 216.746 489.552 217.076 489.881 217.076Z" fill="white"/>
<path d="M426.517 94.405C425.609 94.405 424.872 93.6675 424.872 92.7577C424.872 91.8479 425.609 91.1104 426.517 91.1104C427.425 91.1104 428.161 91.8479 428.161 92.7577C428.161 93.6675 427.425 94.405 426.517 94.405Z" fill="white"/>
<path d="M426.954 102.531C426.046 102.531 425.31 101.793 425.31 100.884C425.31 99.9739 426.046 99.2363 426.954 99.2363C427.862 99.2363 428.599 99.9739 428.599 100.884C428.599 101.793 427.862 102.531 426.954 102.531Z" fill="white"/>
<path d="M425.858 113.294C429.915 111.976 433.861 109.56 437.698 105.936C444.275 99.7859 448.112 92.2082 448.112 92.2082C448.222 91.8788 448.112 91.5493 447.893 91.4395C447.674 91.2198 447.345 91.3296 447.126 91.6591C447.126 91.7689 443.289 99.127 436.931 105.167C428.38 113.184 419.5 115.271 410.511 111.427C410.182 111.317 409.963 111.427 409.853 111.757C409.744 112.086 409.853 112.415 410.182 112.525C415.334 114.832 420.596 115.161 425.749 113.514C425.749 113.294 425.749 113.294 425.858 113.294Z" fill="white"/>
<path d="M424.653 85.2897C430.463 84.1915 436.164 77.9316 436.493 77.6021C436.712 77.3825 436.712 77.053 436.493 76.7236C436.274 76.3941 435.945 76.5039 435.725 76.7236C435.616 76.8334 425.969 87.2665 419.83 83.4227C419.611 83.2031 419.282 83.3129 419.062 83.6423C418.953 83.9718 419.062 84.3013 419.282 84.4111C420.926 85.3995 422.79 85.6191 424.653 85.2897Z" fill="white"/>
<path d="M435.506 208.181C437.698 207.742 439.891 207.192 442.083 206.314C447.455 204.337 452.826 201.042 458.088 196.65C467.078 189.182 472.669 180.835 472.669 180.725C472.888 180.506 472.778 180.066 472.559 179.957C472.34 179.737 472.011 179.847 471.792 180.066C471.792 180.176 466.201 188.413 457.431 195.771C449.319 202.58 436.602 210.048 422.351 206.973C422.022 206.863 421.803 207.083 421.693 207.412C421.693 207.742 421.803 208.071 422.132 208.071C426.407 209.059 430.902 209.059 435.506 208.181Z" fill="white"/>
<path d="M432.435 38.6152C432.764 41.4705 436.82 40.0429 438.793 38.0661C439.67 37.1875 439.232 35.2107 439.122 32.7946C439.013 29.8294 438.355 31.8062 440.438 27.5232C442.63 22.9106 439.013 16.1017 436.053 16.541C436.053 16.541 438.574 9.62219 432.435 5.77843C426.954 2.37395 423.446 6.21771 423.446 6.21771C423.446 6.21771 421.473 0.506976 416.43 0.616798C411.387 0.72662 408.427 5.99807 408.427 5.99807C408.427 5.99807 404.371 2.1543 398.999 5.33914C393.628 8.52397 396.259 12.5874 396.259 12.5874C396.259 12.5874 390.339 12.9169 388.914 17.9687C387.599 22.2517 390.887 24.7776 390.887 24.7776C390.887 24.7776 388.695 27.0839 390.12 31.6964C391.326 35.65 394.286 35.4303 394.834 38.1759C395.163 39.7134 395.82 41.4705 396.368 42.7884C396.807 43.7768 398.122 45.3143 399.109 45.2045C400.425 44.9848 400.863 42.5688 400.425 41.2509C399.767 39.0545 398.999 35.8696 399.986 33.6732C401.63 30.1589 399.548 26.5348 402.836 24.7776C406.125 23.0205 418.951 26.7544 426.296 20.1651C426.296 20.1651 426.735 25.1071 429.914 25.9857C433.093 26.8642 432.545 30.8178 432.545 34.1125C432.325 35.4303 432.435 38.6152 432.435 38.6152Z" fill="#06152B"/>
<path d="M413.8 68.9255L415.006 75.1854C415.883 75.6247 416.65 76.0639 417.527 76.2836C429.586 80.7863 439.781 70.463 439.781 70.463L435.725 48.8281L416.541 66.5095L413.8 68.9255Z" fill="#FFAA8C"/>
<path d="M413.801 68.9253L415.007 75.1852C415.884 75.6244 416.651 76.0637 417.528 76.2834C426.079 70.9021 430.902 59.9199 430.902 59.9199L416.432 66.5092L413.801 68.9253Z" fill="#D0886F"/>
<path d="M400.754 42.6786C400.754 42.6786 396.369 39.1643 395.163 43.7768C393.957 48.3893 397.136 56.5161 402.179 54.1001L400.754 42.6786Z" fill="#FFAA8C"/>
<path d="M399.767 58.1637C399.767 58.1637 402.179 71.1227 415.553 68.487C428.927 65.9611 435.943 53.661 436.382 53.1119L436.053 50.3664L434.189 36.0895L433.203 28.5118C433.203 28.5118 432.326 14.6743 418.952 14.5645C409.195 14.5645 400.644 17.7493 397.136 23.5698C397.027 23.7895 396.917 23.8993 396.807 24.119C395.711 26.0958 395.273 28.402 395.492 30.9279L397.684 44.5458L398.232 47.8405L399.767 58.1637Z" fill="#FFAA8C"/>
<path d="M420.377 29.7191C419.938 31.3664 418.404 32.3548 416.759 32.0253C415.773 31.8057 414.676 31.5861 413.58 31.5861C411.936 31.5861 410.73 30.1584 410.84 28.511C410.73 28.511 416.869 26.7539 420.377 29.7191Z" fill="#35252F"/>
<path d="M396.15 34.3325C397.137 35.7601 399 36.0896 400.426 35.1012C401.193 34.5521 402.18 34.003 403.276 33.5637C404.811 32.9048 405.468 31.1476 404.701 29.7199C404.701 29.6101 398.343 30.269 396.15 34.3325Z" fill="#35252F"/>
<path d="M397.001 23.8333C399.019 22.7117 400.7 23.0482 404.287 23.9455C409.556 25.1793 414.6 22.2631 418.859 18.8983C423.231 15.5334 426.706 18.4496 425.473 20.9172C424.24 23.4968 424.8 25.2914 427.154 27.759C429.508 30.2265 424.576 32.5819 427.827 34.2643C429.172 34.9373 429.396 36.3953 429.172 37.8534C428.948 39.4237 430.405 40.6575 431.862 40.0967C433.32 39.4237 435.001 36.171 435.001 36.171L433.992 28.4319C433.992 28.4319 433.095 14.2997 419.42 14.1875C409.443 14.1875 400.7 17.4402 397.113 23.3847C397.225 23.4968 397.113 23.609 397.001 23.8333Z" fill="#06152B"/>
<path d="M420.053 43.75C417.673 44.2019 415.598 43.7955 415.417 42.8422C415.236 41.8889 417.018 40.7497 419.397 40.2978C421.776 39.8459 423.852 40.2523 424.033 41.2056C424.214 42.1589 422.432 43.2981 420.053 43.75Z" fill="#FD9983"/>
<path d="M398.122 47.84C398.451 47.84 398.78 47.7302 399.219 47.7302C401.63 47.2909 403.384 46.1926 403.165 45.2043C402.946 44.2159 400.863 43.8864 398.561 44.3257C398.232 44.4355 397.903 44.4355 397.684 44.5453L398.122 47.84Z" fill="#FD9983"/>
<path d="M415.472 39.9952C414.759 40.1308 413.978 39.1781 413.729 37.8673C413.48 36.5565 413.857 35.384 414.571 35.2484C415.285 35.1128 416.065 36.0655 416.314 37.3763C416.563 38.6871 416.186 39.8597 415.472 39.9952Z" fill="#35252F"/>
<path d="M402.526 42.4083C401.812 42.5439 401.032 41.5912 400.783 40.2804C400.534 38.9696 400.911 37.7971 401.625 37.6615C402.338 37.5259 403.119 38.4786 403.368 39.7894C403.617 41.1002 403.24 42.2727 402.526 42.4083Z" fill="#35252F"/>
<path d="M408.647 52.0139C413.361 51.1353 416.43 46.3032 416.54 46.3032C416.65 46.0835 416.65 45.7541 416.321 45.5344C416.101 45.4246 415.773 45.4246 415.553 45.7541C415.334 46.0835 410.511 53.4416 403.933 50.3666C403.714 50.2568 403.385 50.3666 403.166 50.5862C403.056 50.8059 403.166 51.1353 403.385 51.355C405.358 52.2336 407.112 52.3434 408.647 52.0139Z" fill="#35252F"/>
<path d="M431.229 48.6094C431.339 48.7192 433.751 52.3433 436.382 53.0023L436.053 50.2567C436.053 50.3665 433.86 50.3665 431.229 48.6094Z" fill="#35252F"/>
<path d="M431.887 39.2748C431.887 39.2748 435.724 31.3676 440.548 36.0899C444.494 40.0435 440.877 52.7828 433.97 49.9275L431.887 39.2748Z" fill="#FFAA8C"/>
<path d="M434.19 47.7299C434.409 47.7299 434.628 47.4004 434.628 47.1808C434.19 41.7995 438.246 39.1638 438.465 39.0539C438.684 38.9441 438.794 38.5048 438.575 38.2852C438.465 38.0655 438.136 37.9557 437.807 38.0655C437.588 38.1754 433.094 41.1406 433.532 47.1808C433.642 47.5102 433.861 47.7299 434.19 47.7299Z" fill="#35252F"/>
<path d="M438.575 43.557C438.685 43.557 438.904 43.4472 438.904 43.2276C439.014 43.0079 438.904 42.6785 438.685 42.4588C438.466 42.349 436.273 41.1409 434.739 41.9097C434.519 42.0195 434.3 42.349 434.519 42.6784C434.629 42.8981 434.958 43.1177 435.287 42.8981C436.164 42.4588 437.698 43.1177 438.247 43.4472C438.356 43.557 438.466 43.557 438.575 43.557Z" fill="#35252F"/>
<path d="M389.353 42.7881L397.246 41.5801L397.465 42.6783L389.572 43.8863C389.243 43.8863 389.024 43.7765 388.914 43.4471C388.805 43.1176 389.024 42.8979 389.353 42.7881Z" fill="#3A36DB"/>
<path d="M420.267 46.0829C425.31 45.0945 428.709 40.2624 427.722 35.1007C426.735 30.0489 421.912 26.6444 416.759 27.6328C411.717 28.6212 408.318 33.4534 409.305 38.615C410.292 43.7767 415.225 47.0713 420.267 46.0829ZM416.979 28.8409C421.473 27.9623 425.749 30.9275 426.626 35.4302C427.503 39.9329 424.543 44.2159 420.048 45.0945C415.554 45.9731 411.278 43.0079 410.401 38.5052C409.634 34.0025 412.594 29.7195 416.979 28.8409Z" fill="#3A36DB"/>
<path d="M398.561 50.2558C403.604 49.2674 407.003 44.4352 406.016 39.2736C405.029 34.2218 400.206 30.8173 395.053 31.8057C390.011 32.7941 386.612 37.6262 387.599 42.7879C388.695 47.8397 393.519 51.2442 398.561 50.2558ZM395.382 32.9039C399.877 32.0253 404.152 34.9905 405.029 39.4932C405.906 43.9959 402.946 48.279 398.452 49.1575C393.957 50.0361 389.682 47.0709 388.805 42.5682C387.928 38.0655 390.888 33.7825 395.382 32.9039Z" fill="#3A36DB"/>
<path d="M438.903 34.9906C439.013 34.9906 439.013 34.9906 439.123 34.8808C439.342 34.771 439.451 34.3317 439.342 34.112C435.724 28.2915 426.735 33.3433 426.625 33.3433C426.406 33.4531 426.296 33.7826 426.406 34.112C426.516 34.3317 426.845 34.4415 427.173 34.3317C427.283 34.3317 435.286 29.7191 438.355 34.6611C438.465 34.9906 438.684 35.1004 438.903 34.9906Z" fill="#3A36DB"/>
<path d="M409.634 45.3149C409.963 45.2051 410.072 44.9855 410.072 44.656C409.963 44.3266 409.743 44.2167 409.415 44.2167C407.441 44.5462 406.345 43.7774 406.016 43.3382C407.332 38.6158 408.538 33.7837 408.538 33.6738C408.647 33.3444 408.428 33.1247 408.099 33.0149C407.77 32.9051 407.551 33.1247 407.441 33.4542C407.441 33.4542 406.126 38.506 404.81 43.3382C404.81 43.448 404.81 43.6676 404.92 43.7774C405.03 43.9971 406.455 45.9739 409.634 45.3149Z" fill="#35252F"/>
<path d="M405.14 37.9566C405.249 37.9566 405.359 37.8468 405.468 37.737C406.674 35.87 409.196 36.7486 409.196 36.7486C409.525 36.8584 409.853 36.7486 409.853 36.4191C409.963 36.0897 409.853 35.7602 409.525 35.7602C408.319 35.3209 405.797 35.1013 404.482 37.0781C404.263 37.2977 404.372 37.6272 404.591 37.8468C404.92 37.9566 405.03 38.0665 405.14 37.9566Z" fill="#605BFF"/>
<path d="M438.357 63.106C438.357 63.106 447.456 62.8863 449.319 71.5623L443.838 83.7525C443.838 83.7525 438.686 76.7239 426.627 77.1632C426.517 77.1632 435.507 70.464 438.357 63.106Z" fill="white"/>
<path d="M419.721 76.9428C419.721 76.9428 415.226 75.1857 414.02 70.3535C414.02 70.3535 406.018 74.966 406.127 82.3241L413.472 85.9482C413.582 86.058 416.103 79.5786 419.721 76.9428Z" fill="white"/>
<path d="M500.184 223.226C500.184 223.226 514.216 278.796 441.425 278.796C402.508 278.796 383.982 275.062 383.982 275.062C383.982 275.062 382.995 309.436 381.241 324.042C379.378 338.539 373.019 374.78 373.019 374.78L342.324 377.196C342.324 377.196 337.391 251.23 356.247 239.589C374.993 227.948 402.07 227.619 448.441 223.226C448.441 223.006 490.099 215.978 500.184 223.226Z" fill="#06152B"/>
<path d="M368.853 364.567C368.744 364.567 368.744 364.567 368.634 364.567C368.196 364.457 367.867 364.018 367.976 363.579C372.252 345.897 373.896 320.419 375.212 300.101C376.527 280.004 377.294 269.461 379.377 267.594C381.679 265.508 388.476 266.276 399.768 267.484C413.8 269.022 434.957 271.218 457.759 268.583C469.05 267.265 477.82 262.872 483.63 255.404C494.045 242.006 491.633 223.226 491.633 223.007C491.523 222.567 491.852 222.128 492.4 222.018C492.839 221.908 493.277 222.238 493.387 222.787C493.497 223.556 495.908 242.445 485.056 256.392C478.917 264.19 469.927 268.912 458.088 270.23C435.067 272.866 413.8 270.559 399.768 269.132C390.011 268.143 382.337 267.265 380.583 268.802C380.145 269.132 379.377 270.889 378.61 278.467C378.062 284.067 377.514 291.535 376.966 300.211C375.65 320.638 373.896 346.117 369.621 364.018C369.621 364.347 369.182 364.567 368.853 364.567Z" fill="#F1F4FA"/>
<path d="M342.763 367.092C342.324 367.092 341.995 366.763 341.886 366.324C341.886 365.884 342.215 365.445 342.653 365.445L374.006 363.578C374.444 363.578 374.883 363.908 374.883 364.347C374.883 364.786 374.554 365.225 374.115 365.225L342.763 367.092Z" fill="#F1F4FA"/>
<path d="M449.319 95.8331L449.209 98.0295L449.1 100.336C448.99 101.873 448.881 103.521 448.771 105.058C448.442 108.243 448.223 111.318 447.784 114.503C447.565 116.04 447.455 117.688 447.236 119.225C447.017 120.763 446.798 122.3 446.578 123.948C446.14 127.023 445.592 130.098 445.044 133.173C444.496 136.248 443.838 139.213 443.18 142.178C442.851 143.606 442.413 145.143 442.084 146.571C441.645 147.998 441.316 149.426 440.878 150.744C440.001 153.49 439.014 156.125 438.028 158.651C436.931 161.067 435.835 163.374 434.629 165.241C433.423 167.108 432.218 168.535 431.231 169.414C430.792 169.853 430.354 170.183 430.025 170.292L429.915 170.402H429.806C429.587 170.512 429.258 170.622 429.038 170.732L428.6 170.951L428.161 171.171C427.833 171.281 427.613 171.391 427.284 171.5C426.079 171.94 424.763 172.379 423.448 172.818C422.132 173.258 420.707 173.587 419.172 173.916C416.212 174.685 413.252 175.344 410.183 175.893C407.114 176.442 403.934 177.101 400.755 177.541C399.221 177.76 397.576 178.09 396.041 178.309C394.397 178.529 392.862 178.858 391.218 179.078C388.039 179.517 384.75 179.957 381.571 180.396L371.924 181.604H371.595C365.127 182.483 360.633 188.413 361.4 194.783C362.167 200.493 366.881 204.776 372.472 204.996L373.788 205.106H375.103C375.98 205.106 376.857 205.216 377.734 205.216C379.488 205.216 381.132 205.326 382.886 205.326C386.285 205.326 389.793 205.326 393.191 205.216C394.945 205.216 396.699 205.106 398.344 204.996C400.098 204.886 401.852 204.776 403.606 204.667C407.114 204.447 410.621 204.227 414.129 203.788C417.637 203.349 421.255 202.909 424.873 202.36C428.49 201.701 432.218 200.933 436.164 199.834C436.712 199.725 437.151 199.505 437.699 199.395L438.466 199.176L439.234 198.956C439.782 198.736 440.33 198.626 440.768 198.407H440.878H440.988L441.207 198.297L441.755 198.077C442.084 197.967 442.413 197.748 442.742 197.638C445.373 196.43 447.894 194.892 449.977 193.245C454.252 189.95 457.322 186.217 459.953 182.483C462.474 178.749 464.447 175.125 466.201 171.5C467.846 167.876 469.271 164.252 470.477 160.628C471.134 158.871 471.682 157.004 472.231 155.247C472.779 153.49 473.217 151.623 473.656 149.865C474.533 146.351 475.41 142.727 476.067 139.213C476.725 135.698 477.383 132.184 477.931 128.67C478.15 126.913 478.479 125.156 478.698 123.398C478.918 121.641 479.137 119.884 479.356 118.127C479.685 114.613 480.014 111.098 480.233 107.584C480.343 105.827 480.452 104.07 480.562 102.313L480.672 99.6769V98.359V96.8215C480.891 88.1456 473.985 81.0072 465.324 80.7875C456.883 80.6777 449.867 87.1572 449.429 95.5036L449.319 95.8331Z" fill="#FFAA8C"/>
<path d="M376.528 179.626C376.528 179.626 380.584 192.695 378.063 203.238C376.528 204.336 374.116 204.885 372.253 204.446C372.253 204.446 374.774 192.805 370.718 179.626C372.582 178.858 374.555 178.858 376.528 179.626Z" fill="#06152B"/>
<path d="M376.199 203.128C372.082 203.128 368.744 199.785 368.744 195.66C368.744 191.536 372.082 188.192 376.199 188.192C380.316 188.192 383.653 191.536 383.653 195.66C383.653 199.785 380.316 203.128 376.199 203.128Z" fill="#06152B"/>
<path d="M376.528 200.932C379.487 200.712 381.68 198.186 381.57 195.221C381.351 192.256 378.83 190.059 375.87 190.169C372.91 190.389 370.717 192.915 370.827 195.88C371.046 198.845 373.677 201.151 376.528 200.932Z" fill="white"/>
<path d="M443.838 179.187C443.947 179.187 444.057 179.187 444.167 179.077C444.386 178.857 444.386 178.528 444.167 178.308C439.343 172.927 431.669 169.632 431.341 169.523C431.012 169.413 430.792 169.523 430.573 169.852C430.464 170.182 430.573 170.401 430.902 170.621C431.012 170.621 438.685 173.915 443.29 179.187C443.509 179.187 443.618 179.187 443.838 179.187Z" fill="#D0886F"/>
<path d="M442.631 172.268C442.851 172.268 443.07 172.049 443.179 171.829C443.289 171.5 443.07 171.28 442.741 171.17C442.522 171.06 436.383 169.743 432.217 169.962C431.888 169.962 431.669 170.292 431.669 170.511C431.669 170.841 431.998 171.06 432.217 171.06C436.164 170.841 442.412 172.268 442.412 172.268C442.631 172.268 442.631 172.268 442.631 172.268Z" fill="#D0886F"/>
<path d="M484.288 98.1388C484.178 105.497 482.096 131.195 478.039 144.813L442.411 138.224C442.411 138.224 446.577 110.329 448.112 92.9772C448.55 87.3762 451.51 82.2146 456.224 79.0298C459.403 76.9432 463.569 75.5155 468.721 76.5039C479.026 78.4807 482.644 88.2548 483.85 93.1968C484.178 94.9539 484.288 96.4915 484.288 98.1388Z" fill="#FF69B4"/>
<path d="M478.04 145.362C478.259 145.362 478.479 145.253 478.588 145.033C485.166 124.277 484.618 103.41 484.618 103.191C484.618 102.861 484.398 102.642 484.07 102.642C483.741 102.642 483.521 102.861 483.521 103.191C483.521 103.41 484.07 124.057 477.492 144.703C477.382 145.033 477.602 145.253 477.821 145.362C477.931 145.362 477.931 145.362 478.04 145.362Z" fill="white"/>
<path d="M442.412 138.772C442.632 138.772 442.851 138.553 442.96 138.333C445.043 126.472 447.894 100.335 447.894 100.115C447.894 99.7855 447.674 99.5659 447.455 99.4561C447.126 99.4561 446.907 99.6757 446.797 99.8953C446.797 100.115 443.947 126.253 441.864 138.004C441.755 138.443 441.974 138.772 442.412 138.772C442.303 138.772 442.412 138.772 442.412 138.772Z" fill="white"/>
<path d="M497.114 356.44H398.78C396.478 356.44 394.614 354.573 394.614 352.267C394.614 349.961 396.478 348.094 398.78 348.094H497.114C499.416 348.094 501.279 349.961 501.279 352.267C501.279 354.573 499.416 356.44 497.114 356.44Z" fill="#99B2C6"/>
<path d="M389.682 420.137C389.462 420.137 389.353 420.137 389.134 420.137C386.831 419.807 385.297 417.721 385.516 415.414L403.494 281.432C403.823 279.345 405.577 277.808 407.66 277.808H487.905C489.988 277.808 491.742 279.345 492.071 281.432L509.721 415.524C510.05 417.831 508.405 419.917 506.103 420.247C503.801 420.576 501.718 418.929 501.389 416.622L484.178 286.264H411.168L393.738 416.732C393.519 418.709 391.765 420.137 389.682 420.137Z" fill="#99B2C6"/>
<path d="M430.901 281.981H483.082C499.636 281.981 517.285 272.976 519.807 256.612C523.205 234.758 524.082 213.562 523.095 194.123C521.999 172.159 510.817 151.732 493.497 138.114C493.497 138.114 506.432 204.666 497.005 246.289C491.523 270.01 430.901 281.981 430.901 281.981Z" fill="#99B2C6"/>
<path d="M294.419 206.313H420.159C420.488 206.313 420.707 206.093 420.707 205.764C420.707 201.81 417.528 198.735 413.691 198.735H294.529C294.2 198.735 293.981 198.955 293.981 199.284V205.874C293.871 206.093 294.2 206.313 294.419 206.313Z" fill="#99B2C6"/>
<path d="M252.097 136.23L267.773 202.782C268.212 204.539 269.747 205.857 271.61 205.857H368.299C370.821 205.857 372.684 203.441 372.136 201.025L356.46 134.472C356.021 132.715 354.487 131.397 352.623 131.397H255.934C253.413 131.397 251.549 133.814 252.097 136.23Z" fill="#99B2C6"/>
<path d="M302.979 168.892C303.966 174.163 309.008 178.337 314.161 178.337C319.313 178.337 322.821 174.054 321.835 168.892C320.848 163.62 315.805 159.447 310.653 159.447C305.501 159.447 301.993 163.62 302.979 168.892Z" fill="white"/>
<path d="M349.122 131.854L365.785 206.203H368.635C371.157 206.203 373.02 203.787 372.472 201.371L356.796 134.819C356.357 133.062 354.823 131.744 352.959 131.744H349.122V131.854Z" fill="#99B2C6"/>
<path d="M158.704 211.584V216.746C158.704 219.711 161.225 222.127 164.295 222.127H549.845C552.914 222.127 555.436 219.711 555.436 216.746V211.584C555.436 208.619 552.914 206.203 549.845 206.203H164.295C161.115 206.203 158.704 208.619 158.704 211.584Z" fill="#605BFF"/>
<path d="M179.971 235.196H522.987C530.003 235.196 535.594 229.485 535.594 222.567V222.018H167.255V222.567C167.364 229.485 172.955 235.196 179.971 235.196Z" fill="#605BFF"/>
<path d="M174.49 300.43H523.426V309.545H174.49V300.43Z" fill="#605BFF"/>
<path d="M540.088 421.784L495.142 235.196H510.928L555.874 421.784H540.088Z" fill="#605BFF"/>
<path d="M159.8 421.784L204.746 235.196H188.96L144.014 421.784H159.8Z" fill="#605BFF"/>
<path d="M158.594 214.11H555.326V216.417H158.594V214.11Z" fill="#1B48CA"/>
<path d="M520.072 163.236L524.948 163.984L519.305 200.894L514.429 200.146L520.072 163.236Z" fill="#3A36DB"/>
<path d="M520.076 163.263L524.899 164.032L523.803 160.298L523.255 158.321L522.159 159.969L520.076 163.263Z" fill="#FF8C64"/>
<path d="M514.816 197.519L519.692 198.268L519.277 200.982L514.401 200.233L514.816 197.519Z" fill="#35252F"/>
<path d="M514.375 202.36L518.651 203.019C518.87 203.019 518.98 202.909 518.98 202.689L519.309 200.822L514.375 200.054L514.047 201.921C514.047 202.14 514.156 202.36 514.375 202.36Z" fill="#EF452F"/>
<path d="M522.159 159.969L523.804 160.298L523.256 158.321L522.159 159.969Z" fill="#35252F"/>
<path d="M519.679 198.271L514.803 197.522L515.101 195.568L519.978 196.317L519.679 198.271Z" fill="#F68407"/>
<path d="M523.474 165.68L519.308 193.025C519.308 193.245 519.089 193.355 518.869 193.355C518.65 193.355 518.541 193.135 518.541 192.915L522.706 165.57C522.706 165.35 522.925 165.24 523.145 165.24C523.364 165.24 523.474 165.46 523.474 165.68Z" fill="#3A36DB"/>
<path d="M521.501 165.35L517.335 192.696C517.335 192.916 517.116 193.026 516.897 193.026C516.678 193.026 516.568 192.806 516.568 192.586L520.734 165.241C520.734 165.021 520.953 164.911 521.172 164.911C521.391 164.911 521.501 165.131 521.501 165.35Z" fill="#3A36DB"/>
<path d="M511.254 163.366L516.188 163.382L516.066 200.721L511.133 200.705L511.254 163.366Z" fill="#03A89E"/>
<path d="M511.196 163.373L516.129 163.483L514.485 159.859L513.717 158.102L512.84 159.859L511.196 163.373Z" fill="#FF8C64"/>
<path d="M511.088 198.069L516.021 198.085L516.013 200.831L511.079 200.814L511.088 198.069Z" fill="#35252F"/>
<path d="M511.414 202.909H515.69C515.909 202.909 516.019 202.8 516.019 202.58V200.713H511.085V202.58C511.085 202.8 511.195 202.909 511.414 202.909Z" fill="#EF452F"/>
<path d="M512.839 159.86H514.483L513.716 158.103L512.839 159.86Z" fill="#35252F"/>
<path d="M516.023 198.086L511.09 198.07L511.096 196.094L516.029 196.11L516.023 198.086Z" fill="#3C7341"/>
<path d="M514.924 165.241L514.814 192.916C514.814 193.135 514.595 193.245 514.485 193.245C514.266 193.245 514.156 193.026 514.156 192.916L514.266 165.241C514.266 165.021 514.485 164.911 514.595 164.911C514.705 164.911 514.924 165.021 514.924 165.241Z" fill="#03A89E"/>
<path d="M512.949 165.242L512.84 192.917C512.84 193.136 512.62 193.246 512.511 193.246C512.291 193.246 512.182 193.027 512.182 192.917L512.291 165.242C512.291 165.022 512.511 164.912 512.62 164.912C512.84 164.912 512.949 165.022 512.949 165.242Z" fill="#03A89E"/>
<path d="M502.662 163.933L507.547 163.239L512.8 200.208L507.916 200.902L502.662 163.933Z" fill="#06152B"/>
<path d="M502.646 163.922L507.579 163.263L505.496 159.969L504.4 158.321L503.742 160.188L502.646 163.922Z" fill="#FF8C64"/>
<path d="M507.51 198.248L512.395 197.554L512.781 200.272L507.896 200.966L507.51 198.248Z" fill="#35252F"/>
<path d="M508.566 203.019L512.841 202.361C513.06 202.361 513.17 202.141 513.17 202.031L512.951 200.164L508.018 200.823L508.237 202.69C508.237 202.91 508.346 203.019 508.566 203.019Z" fill="#EF452F"/>
<path d="M503.742 160.188L505.496 159.969L504.4 158.321L503.742 160.188Z" fill="#35252F"/>
<path d="M512.427 197.476L507.543 198.171L507.265 196.214L512.15 195.518L512.427 197.476Z" fill="#1B48CA"/>
<path d="M506.593 165.241L510.43 192.586C510.43 192.806 510.32 193.026 510.101 193.026C509.882 193.026 509.662 192.916 509.662 192.696L505.825 165.35C505.825 165.131 505.935 164.911 506.154 164.911C506.374 164.911 506.593 165.021 506.593 165.241Z" fill="#06152B"/>
<path d="M504.729 165.57L508.565 192.915C508.565 193.135 508.456 193.355 508.237 193.355C508.017 193.355 507.798 193.245 507.798 193.025L503.961 165.679C503.961 165.46 504.071 165.24 504.29 165.24C504.509 165.13 504.619 165.35 504.729 165.57Z" fill="#06152B"/>
<path d="M501.001 178.199L501.329 180.176L501.549 182.043L501.878 184.789L502.097 186.546L502.535 189.401L502.755 191.158L503.083 193.904L503.303 195.661L503.632 198.516L503.851 200.273L504.289 203.129L504.509 204.776L504.728 206.314H524.131L524.351 204.776L524.57 203.129L524.899 200.273L525.118 198.516L525.447 195.661L525.666 193.904L526.105 191.158L526.324 189.401L526.653 186.546L526.872 184.789L527.201 182.043L527.42 180.176L527.749 178.199H501.001Z" fill="#FF69B4"/>
<path d="M501.33 180.176L501.549 182.043H527.202L527.421 180.176H501.33Z" fill="#FF2290"/>
<path d="M501.878 184.789L502.097 186.546H526.653L526.872 184.789H501.878Z" fill="#FF2290"/>
<path d="M502.536 189.399L502.755 191.157H526.105L526.324 189.399H502.536Z" fill="#FF2290"/>
<path d="M503.084 193.903L503.304 195.66H525.448L525.667 193.903H503.084Z" fill="#FF2290"/>
<path d="M503.633 198.517L503.852 200.274H524.9L525.119 198.517H503.633Z" fill="#FF2290"/>
<path d="M504.291 203.127L504.51 204.774H524.352L524.571 203.127H504.291Z" fill="#FF2290"/>
<path d="M176.573 177.541H218.56V183.581H176.573V177.541Z" fill="#FAB623"/>
<path d="M175.915 201.262C180.191 206.314 192.359 206.424 196.306 206.314C197.073 206.314 197.511 206.314 197.511 206.314C197.511 206.314 213.955 207.412 219.108 201.262C221.958 197.748 220.423 192.586 218.45 188.743C218.011 187.864 217.463 186.986 217.025 186.217C216.038 184.569 215.271 183.581 215.271 183.581H179.752C179.752 183.581 178.108 185.777 176.573 188.633C174.71 192.586 173.065 197.748 175.915 201.262Z" fill="#FAB623"/>
<path d="M211.105 196.54C212.859 202.141 206.281 206.424 197.511 206.204C197.511 206.204 213.955 207.303 219.108 201.153C221.958 197.638 220.423 192.477 218.45 188.633C218.45 188.523 218.34 188.413 218.34 188.413C218.34 188.303 218.231 188.194 218.231 188.194C217.902 187.535 217.463 186.876 217.134 186.217C216.148 184.569 215.38 183.581 215.38 183.581H179.862C179.862 183.581 178.218 185.777 176.683 188.633H192.578C196.525 188.633 200.471 189.402 204.199 190.829C207.268 192.147 210.338 194.014 211.105 196.54Z" fill="#F68407"/>
<path d="M182.712 172.159C183.15 172.928 183.698 173.587 184.137 174.136C185.562 176.112 186.768 177.43 186.877 177.54H208.254C208.364 177.43 209.46 176.112 210.995 174.136C211.433 173.477 211.981 172.818 212.42 172.159C215.051 168.205 217.792 162.934 217.024 158.98C216.805 157.772 216.476 156.894 215.928 156.345C215.709 156.015 215.489 155.795 215.161 155.686C212.858 154.368 209.35 157.443 208.254 157.333C206.719 157.223 209.241 149.645 212.749 144.264C216.038 139.212 218.12 132.623 214.174 130.207C214.064 130.097 213.845 129.987 213.735 129.987C213.626 129.877 213.407 129.877 213.297 129.768C208.145 127.901 206.281 134.819 204.088 133.831C201.896 132.843 208.583 110.549 198.169 110.549C198.059 110.549 197.84 110.549 197.621 110.549C197.401 110.549 197.292 110.549 197.073 110.549C186.658 110.549 193.345 132.952 191.153 133.831C188.96 134.819 187.206 127.791 181.944 129.768C181.835 129.877 181.615 129.877 181.506 129.987C181.396 130.097 181.177 130.097 181.067 130.207C177.011 132.623 179.204 139.322 182.492 144.264C186 149.645 188.412 157.113 186.987 157.333C185.891 157.443 182.383 154.258 180.081 155.686C179.861 155.795 179.533 156.015 179.313 156.345C178.875 156.894 178.546 157.772 178.217 158.98C177.34 162.934 180.081 168.205 182.712 172.159Z" fill="#4F9D5C"/>
<path d="M197.072 110.55V177.541H198.059V110.55C197.949 110.55 197.73 110.55 197.51 110.55C197.401 110.55 197.182 110.55 197.072 110.55Z" fill="#3C7341"/>
<path d="M197.182 148.987L197.511 149.317L197.84 149.646L197.95 149.537L214.394 130.537L213.955 130.208C213.845 130.098 213.626 129.988 213.517 129.988L197.95 147.999L197.402 148.548L197.182 148.987Z" fill="#3C7341"/>
<path d="M197.181 176.442L197.51 176.771L197.839 177.101L197.949 176.991L215.817 156.344C215.598 156.015 215.379 155.795 215.05 155.686L197.949 175.453L197.4 176.003L197.181 176.442Z" fill="#3C7341"/>
<path d="M180.63 130.428L197.073 149.427L197.183 149.537L197.512 149.208L197.841 148.878L197.512 148.439L196.964 147.89L181.397 129.879C181.287 129.989 181.068 129.989 180.959 130.099L180.63 130.428Z" fill="#3C7341"/>
<path d="M179.094 156.235L196.963 176.882L197.073 176.991L197.402 176.662L197.73 176.333L197.402 175.893L196.853 175.344L179.752 155.576C179.642 155.796 179.423 156.015 179.094 156.235Z" fill="#3C7341"/>
<path opacity="0.2" d="M619.675 425.188C589.584 425.188 565.191 423.271 565.191 420.905C565.191 418.54 589.584 416.622 619.675 416.622C649.765 416.622 674.158 418.54 674.158 420.905C674.158 423.271 649.765 425.188 619.675 425.188Z" fill="#605BFF"/>
<path d="M580.648 402.237L572.207 275.393H669.883L661.332 402.237H580.648Z" fill="#EF452F"/>
<path d="M572.975 287.362L668.677 292.853L669.335 282.859H572.646L572.975 287.362Z" fill="#AD2F24"/>
<path d="M568.918 282.86H673.061C674.487 282.86 675.692 281.652 675.692 280.224V274.403C675.692 272.976 674.487 271.768 673.061 271.768H568.918C567.493 271.768 566.287 272.976 566.287 274.403V280.224C566.287 281.652 567.493 282.86 568.918 282.86Z" fill="#EF5F44"/>
<path d="M583.169 303.178L585.581 345.569H656.508L658.92 303.178H583.169Z" fill="#AD2F24"/>
<path d="M620.99 329.643C619.053 329.643 617.482 328.069 617.482 326.129C617.482 324.188 619.053 322.614 620.99 322.614C622.927 322.614 624.498 324.188 624.498 326.129C624.498 328.069 622.927 329.643 620.99 329.643Z" fill="#EF452F"/>
<path d="M586.458 355.562L588.65 394.11H653.329L655.521 355.562H586.458Z" fill="#AD2F24"/>
<path d="M620.99 379.723C619.053 379.723 617.482 378.15 617.482 376.209C617.482 374.268 619.053 372.694 620.99 372.694C622.927 372.694 624.498 374.268 624.498 376.209C624.498 378.15 622.927 379.723 620.99 379.723Z" fill="#EF452F"/>
<path d="M631.404 402.236C631.624 402.236 631.843 402.236 631.953 402.236C641.709 402.346 650.15 409.155 652.343 418.49L653.001 421.126H660.565L661.332 402.236H631.404Z" fill="#AD2F24"/>
<path d="M610.576 402.236C610.357 402.236 610.138 402.236 610.028 402.236C600.271 402.346 591.83 409.155 589.638 418.49L588.98 421.126H581.416L580.649 402.236H610.576Z" fill="#AD2F24"/>
<path d="M640.503 208.4C640.503 208.4 649.054 210.816 658.482 198.626C665.278 189.73 677.337 170.841 694 170.511C694 170.511 674.268 161.945 656.837 170.621C639.297 179.407 629.979 202.03 640.503 208.4Z" fill="#03A89E"/>
<path d="M635.352 243.762C635.571 243.762 635.79 243.542 635.79 243.323C635.79 243.213 635.242 231.352 637.544 217.954C639.737 205.544 644.779 189.29 656.948 181.713C657.167 181.603 657.276 181.273 657.057 181.054C656.948 180.834 656.619 180.724 656.4 180.944C650.918 184.348 646.424 189.73 642.916 197.088C640.175 202.908 637.983 209.827 636.667 217.844C634.255 231.352 634.913 243.323 634.913 243.433C634.913 243.542 635.132 243.762 635.352 243.762Z" fill="#06152B"/>
<path d="M633.927 181.383C633.927 181.383 625.266 179.407 622.964 164.032C621.32 152.94 619.895 130.536 605.534 122.189C605.534 122.189 627.02 124.276 637.983 140.42C648.945 156.564 646.204 180.944 633.927 181.383Z" fill="#03A89E"/>
<path d="M622.087 244.751C622.306 244.751 622.416 244.641 622.526 244.422C622.635 244.312 628.336 228.498 632.502 209.059C634.913 197.638 636.448 187.205 636.777 177.98C637.325 166.448 636.119 156.894 633.379 149.646C633.269 149.426 633.05 149.316 632.83 149.426C632.611 149.536 632.502 149.755 632.611 149.975C638.75 166.338 635.461 191.048 631.625 208.84C627.459 228.278 621.758 243.983 621.758 244.092C621.649 244.312 621.758 244.641 621.978 244.641C621.978 244.751 621.978 244.751 622.087 244.751Z" fill="#06152B"/>
<path d="M618.797 188.852C618.797 188.852 610.027 190.06 602.353 176.552C596.872 166.777 587.554 146.46 571.11 143.715C571.11 143.715 591.939 138.004 607.944 149.096C624.059 160.408 630.088 184.02 618.797 188.852Z" fill="#03A89E"/>
<path d="M617.482 244.751C617.701 244.751 617.92 244.641 617.92 244.422C617.92 244.312 620.88 229.376 620.88 211.585C620.88 201.152 620.003 191.707 618.139 183.58C615.837 173.477 612 165.35 606.848 159.42C606.629 159.2 606.409 159.2 606.19 159.42C605.971 159.639 605.971 159.859 606.19 160.079C617.701 173.147 620.113 195.222 620.003 211.585C619.893 229.266 617.043 244.092 617.043 244.202C616.933 244.422 617.153 244.641 617.482 244.751C617.372 244.751 617.482 244.751 617.482 244.751Z" fill="#06152B"/>
<path d="M603.669 209.498C603.669 209.498 595.228 212.464 585.143 200.713C577.798 192.256 564.643 174.136 547.98 174.795C547.98 174.795 567.164 165.02 585.143 172.818C603.121 180.505 613.755 202.58 603.669 209.498Z" fill="#03A89E"/>
<path d="M611.891 244.751C612.11 244.751 612.33 244.531 612.33 244.312C612.33 244.202 612.549 233.988 609.479 221.359C607.616 214.001 605.094 207.192 601.806 201.262C597.64 193.794 592.378 187.644 586.129 183.031C585.91 182.921 585.691 182.921 585.472 183.141C585.362 183.361 585.362 183.58 585.581 183.8C599.503 194.233 605.752 210.157 608.602 221.688C611.672 234.208 611.453 244.202 611.453 244.312C611.453 244.531 611.562 244.751 611.891 244.751Z" fill="#06152B"/>
<path d="M584.595 255.293C584.595 256.611 584.814 257.929 585.253 259.357C587.007 265.287 592.049 269.68 598.188 270.559C613.097 272.645 628.445 272.535 644.231 270.449C651.137 269.57 656.728 264.299 657.824 257.38C658.043 256.172 658.043 255.074 657.934 253.866C657.605 249.912 655.522 246.068 651.576 242.225H590.953C586.568 246.398 584.595 250.791 584.595 255.293Z" fill="#FFD66B"/>
<path d="M619.017 261.334C638.31 261.334 650.808 257.6 657.824 254.415C658.043 254.306 658.153 254.086 658.043 253.866C657.933 253.647 657.714 253.537 657.495 253.647C650.479 256.722 638.201 260.456 619.017 260.456C605.423 260.456 594.022 258.589 585.142 254.964C584.923 254.855 584.594 254.964 584.594 255.184C584.485 255.404 584.594 255.733 584.814 255.733C593.803 259.467 605.313 261.334 619.017 261.334Z" fill="#F68407"/>
<path d="M40.7472 119.445H47.9824V194.563H40.7472V119.445Z" fill="#F2B441"/>
<path d="M40.6376 123.069V129.549L47.9824 131.745V123.069H40.6376Z" fill="#F28D32"/>
<path d="M4.89883 121.751C31.0991 125.814 57.4091 125.814 83.6094 121.751L64.9732 70.025C51.1605 67.6089 37.3477 67.6089 23.6446 70.025L4.89883 121.751Z" fill="#3A36DB"/>
<path d="M44.5833 117.798C56.5324 117.798 68.3719 117.139 80.6499 115.931C81.0884 115.931 81.3076 115.491 81.3076 115.162C81.3076 114.723 80.8692 114.503 80.5403 114.503C56.3132 117.029 33.292 117.029 8.18798 114.503C7.74948 114.503 7.42059 114.723 7.42059 115.162C7.42059 115.601 7.63982 115.931 8.07832 115.931C20.5755 117.139 32.6342 117.798 44.5833 117.798Z" fill="#1B48CA"/>
<path d="M70.4547 116.81C70.5643 116.81 70.5643 116.81 70.6739 116.81C71.1124 116.7 71.3317 116.261 71.2221 115.931L59.7115 69.6962C59.6018 69.2569 59.1633 69.0373 58.8344 69.1471C58.3959 69.2569 58.1767 69.6962 58.2863 70.0257L69.7969 116.261C69.7969 116.59 70.1258 116.81 70.4547 116.81Z" fill="#1B48CA"/>
<path d="M18.0528 116.81C18.3816 116.81 18.7105 116.59 18.8201 116.261L30.2211 70.0257C30.3307 69.5864 30.1115 69.2569 29.673 69.1471C29.2345 69.0373 28.9056 69.2569 28.796 69.6962L17.395 115.931C17.2854 116.371 17.5046 116.7 17.9431 116.81C17.9431 116.81 17.9431 116.81 18.0528 116.81Z" fill="#1B48CA"/>
<path d="M44.2541 117.797C44.6926 117.797 45.0215 117.468 45.0215 117.028V69.0363C45.0215 68.597 44.6926 68.2676 44.2541 68.2676C43.8156 68.2676 43.4867 68.597 43.4867 69.0363V117.138C43.5963 117.468 43.9252 117.797 44.2541 117.797Z" fill="#1B48CA"/>
<path d="M26.496 187.095V194.563H62.124V187.095L44.2552 182.922L26.496 187.095Z" fill="#3A36DB"/>
<path d="M68.9194 184.68H67.6039V182.703L116.387 182.813C118.031 182.813 119.456 183.472 120.553 184.57C121.649 185.668 122.307 187.096 122.307 188.743C122.307 192.038 119.676 194.564 116.387 194.564L67.6039 194.454V192.807H68.9194V184.68Z" fill="#FF69B4"/>
<path d="M68.5922 184.681V192.807L113.319 192.917C115.512 192.917 117.266 191.05 117.266 188.854C117.266 187.756 116.827 186.767 116.06 185.999C115.292 185.23 114.306 184.79 113.209 184.79L68.5922 184.681Z" fill="white"/>
<path d="M68.5915 186.767V187.975L112.222 188.084C112.551 188.084 112.88 187.755 112.88 187.426C112.88 187.096 112.551 186.767 112.222 186.767H68.5915Z" fill="#EAD6BF"/>
<path d="M68.5915 189.842V191.05L112.222 191.16C112.551 191.16 112.88 190.83 112.88 190.501C112.88 190.171 112.551 189.842 112.222 189.842H68.5915Z" fill="#EAD6BF"/>
<path d="M73.3042 172.929H71.9886V170.952L120.772 171.062C122.416 171.062 123.841 171.721 124.937 172.819C126.034 173.917 126.691 175.345 126.691 176.992C126.691 180.287 124.06 182.813 120.772 182.813L71.9886 182.703V181.056H73.3042V172.929Z" fill="#03A89E"/>
<path d="M72.976 172.929V181.056L117.703 181.165C119.895 181.165 121.649 179.298 121.649 177.102C121.649 176.004 121.211 175.015 120.444 174.247C119.676 173.478 118.69 173.039 117.593 173.039L72.976 172.929Z" fill="white"/>
<path d="M72.9772 175.016V176.224L116.608 176.333C116.937 176.333 117.266 176.004 117.266 175.675C117.266 175.345 116.937 175.016 116.608 175.016H72.9772Z" fill="#EAD6BF"/>
<path d="M72.9772 178.091V179.299L116.608 179.409C116.937 179.409 117.266 179.079 117.266 178.75C117.266 178.42 116.937 178.091 116.608 178.091H72.9772Z" fill="#EAD6BF"/>
<path d="M64.8637 161.178H63.5483V159.201L112.331 159.311C113.976 159.311 115.401 159.97 116.497 161.068C117.593 162.166 118.251 163.594 118.251 165.241C118.251 168.536 115.62 171.062 112.331 171.062L63.5483 170.952V169.305H64.8637V161.178Z" fill="#3A36DB"/>
<path d="M64.5346 161.178V169.305L109.261 169.414C111.454 169.414 113.208 167.547 113.208 165.351C113.208 164.253 112.769 163.264 112.002 162.496C111.235 161.727 110.248 161.288 109.152 161.288L64.5346 161.178Z" fill="white"/>
<path d="M64.5339 163.265V164.473L108.164 164.583C108.493 164.583 108.822 164.253 108.822 163.924C108.822 163.594 108.493 163.265 108.164 163.265H64.5339Z" fill="#EAD6BF"/>
<path d="M64.5339 166.34V167.548L108.164 167.658C108.493 167.658 108.822 167.328 108.822 166.999C108.822 166.669 108.493 166.34 108.164 166.34H64.5339Z" fill="#EAD6BF"/>
<path opacity="0.2" d="M68.591 426.726C30.751 426.726 0.0755463 424.022 0.0755463 420.686C0.0755463 417.35 30.751 414.646 68.591 414.646C106.431 414.646 137.106 417.35 137.106 420.686C137.106 424.022 106.431 426.726 68.591 426.726Z" fill="#605BFF"/>
<path d="M8.84477 199.065L23.7537 420.906H113.536L128.445 199.065H8.84477Z" fill="#FAB623"/>
<path d="M9.83169 213.672L127.02 220.481L127.897 208.181H9.39317L9.83169 213.672Z" fill="#F68407"/>
<path d="M4.35123 208.18H132.941C134.476 208.18 135.682 206.972 135.682 205.435V197.308C135.682 195.771 134.476 194.562 132.941 194.562H4.35123C2.81648 194.562 1.61061 195.771 1.61061 197.308V205.435C1.61061 206.972 2.81648 208.18 4.35123 208.18Z" fill="#EDC85A"/>
<path d="M22.2201 233.22L25.18 285.056H112.112L115.072 233.22H22.2201Z" fill="#F68407"/>
<path d="M68.5906 265.727C66.1688 265.727 64.2056 263.76 64.2056 261.334C64.2056 258.908 66.1688 256.941 68.5906 256.941C71.0124 256.941 72.9756 258.908 72.9756 261.334C72.9756 263.76 71.0124 265.727 68.5906 265.727Z" fill="#FAB623"/>
<path d="M26.2757 297.246L29.0163 344.579H108.275L111.016 297.246H26.2757Z" fill="#F68407"/>
<path d="M68.5906 327.118C66.1688 327.118 64.2056 325.151 64.2056 322.725C64.2056 320.299 66.1688 318.332 68.5906 318.332C71.0124 318.332 72.9756 320.299 72.9756 322.725C72.9756 325.151 71.0124 327.118 68.5906 327.118Z" fill="#FAB623"/>
<path d="M29.7841 356.55L32.3055 400.039H104.987L107.398 356.55H29.7841Z" fill="#F68407"/>
<path d="M68.5906 382.687C66.1688 382.687 64.2056 380.72 64.2056 378.294C64.2056 375.868 66.1688 373.901 68.5906 373.901C71.0124 373.901 72.9756 375.868 72.9756 378.294C72.9756 380.72 71.0124 382.687 68.5906 382.687Z" fill="#FAB623"/>
</svg>
